<svg xmlns="http://www.w3.org/2000/svg" xmlns:xlink="http://www.w3.org/1999/xlink" width="500" zoomAndPan="magnify" viewBox="0 0 375 374.999991" height="500" preserveAspectRatio="xMidYMid meet" version="1.2"><defs><clipPath id="2912c84d79"><path d="M 39 50 L 336.40625 50 L 336.40625 330.664062 L 39 330.664062 Z M 39 50 "/></clipPath><clipPath id="2d4a99693d"><path d="M 39 74 L 329 74 L 329 330.664062 L 39 330.664062 Z M 39 74 "/></clipPath></defs><g id="affcbd30b8"><g clip-rule="nonzero" clip-path="url(#2912c84d79)"><path style=" stroke:none;fill-rule:nonzero;fill:#27cde3;fill-opacity:1;" d="M 190.628906 60.492188 C 170.261719 76.820312 166.984375 106.566406 183.3125 126.933594 C 199.636719 147.300781 229.382812 150.574219 249.75 134.25 C 270.121094 117.925781 273.394531 88.179688 257.066406 67.8125 C 240.742188 47.445312 210.996094 44.167969 190.628906 60.492188 Z M 47.234375 74.480469 C 51.792969 82.9375 56.335938 90.355469 61.402344 96.664062 C 66.445312 102.976562 71.867188 108.15625 77.492188 112.566406 C 83.121094 116.984375 88.96875 120.6875 95.058594 124.058594 C 101.167969 127.40625 107.488281 130.460938 114.066406 133.363281 C 127.203125 139.171875 141.269531 144.464844 155.871094 150.007812 C 170.460938 155.550781 185.625 161.273438 201.078125 167.75 C 216.523438 174.222656 232.261719 181.414062 247.988281 190.140625 C 255.847656 194.5 263.683594 199.257812 271.421875 204.542969 C 279.160156 209.824219 286.785156 215.664062 294.121094 222.210938 C 301.4375 228.777344 308.488281 236.0625 314.746094 244.316406 C 321.003906 252.53125 326.53125 261.6875 330.390625 271.621094 C 334.238281 281.550781 336.304688 292.183594 336.089844 302.40625 C 335.867188 312.640625 333.503906 322.367188 328.921875 330.824219 C 324.347656 322.359375 319.578125 315.148438 314.253906 309.253906 C 308.976562 303.332031 303.320312 298.707031 297.476562 294.785156 C 291.585938 290.882812 285.425781 287.648438 279.035156 284.660156 C 272.617188 281.707031 265.980469 278.976562 259.097656 276.363281 C 245.355469 271.109375 230.742188 266.207031 215.695312 260.863281 C 200.648438 255.53125 185.09375 249.847656 169.363281 243.203125 C 153.636719 236.570312 137.65625 229.035156 121.847656 219.734375 C 113.945312 215.089844 106.105469 209.980469 98.425781 204.296875 C 90.75 198.609375 83.246094 192.304688 76.152344 185.234375 C 69.078125 178.160156 62.394531 170.308594 56.683594 161.554688 C 50.960938 152.839844 46.191406 143.230469 43.125 133.132812 C 40.039062 123.058594 38.722656 112.539062 39.40625 102.507812 C 40.136719 92.457031 42.699219 82.9375 47.234375 74.480469 "/></g><g clip-rule="nonzero" clip-path="url(#2d4a99693d)"><path style=" stroke:none;fill-rule:nonzero;fill:#15cddf;fill-opacity:1;" d="M 328.921875 330.824219 C 324.347656 322.363281 319.570312 315.152344 314.25 309.25 C 308.976562 303.335938 303.320312 298.710938 297.476562 294.789062 C 291.582031 290.878906 285.421875 287.648438 279.03125 284.660156 C 272.617188 281.703125 265.980469 278.976562 259.097656 276.367188 C 245.351562 271.113281 230.738281 266.207031 215.691406 260.867188 C 200.644531 255.53125 185.089844 249.847656 169.359375 243.203125 C 153.632812 236.574219 137.652344 229.035156 121.847656 219.738281 C 113.945312 215.09375 106.101562 209.984375 98.421875 204.292969 C 90.746094 198.609375 83.242188 192.304688 76.148438 185.234375 C 69.074219 178.160156 62.394531 170.308594 56.679688 161.554688 C 50.957031 152.835938 46.1875 143.234375 43.125 133.136719 C 40.035156 123.058594 38.71875 112.542969 39.398438 102.511719 C 40.136719 92.453125 42.695312 82.9375 47.230469 74.476562 C 47.230469 211.28125 303.90625 195.242188 328.921875 330.824219 "/></g></g></svg>